<?xml version="1.0" standalone="no"?><!DOCTYPE svg PUBLIC "-//W3C//DTD SVG 1.1//EN" "http://www.w3.org/Graphics/SVG/1.1/DTD/svg11.dtd"><svg class="icon" width="200px" height="200.00px" viewBox="0 0 1024 1024" version="1.1" xmlns="http://www.w3.org/2000/svg"><path d="M518.623 556.955l-264.807-115.040c-2.179-0.946-4.653-0.929-6.815 0.044l-240.93 108.622c-3.020 1.363-4.961 4.368-4.961 7.678v270.144c0 3.242 1.863 6.199 4.793 7.6l249.888 119.378c1.149 0.55 2.387 0.829 3.632 0.829 1.263 0 2.529-0.288 3.693-0.857l255.849-124.807c2.894-1.412 4.727-4.346 4.727-7.567v-258.297c-0.001-3.355-1.993-6.387-5.067-7.724v0zM241.68 910.916l-211.476-100.726v-204.33l211.476 89.855v215.203zM262.087 660.508l-217.978-89.814c-0.67-0.29-1.353-0.466-2.038-0.558l208.977-90.572 223.714 93.429-212.674 87.514zM494.663 805.023l-211.707 103.101v-212.514l211.707-89.929v199.342zM65.462 701.796l109.073 50.603c1.757 1.468 3.726 2.516 5.785 3.138 6.062 1.842 12.907 0.035 17.241-5.121 5.818-6.88 4.931-17.184-1.956-23.027l-109.087-50.59c-6.895-5.81-17.201-4.934-23.017 1.979-5.818 6.891-4.933 17.188 1.959 23.020v0zM1020.471 556.955l-264.807-115.040c-2.179-0.946-4.653-0.929-6.815 0.044l-240.93 108.622c-3.020 1.363-4.961 4.368-4.961 7.678v270.144c0 3.242 1.863 6.199 4.793 7.6l249.888 119.378c1.149 0.55 2.387 0.829 3.632 0.829 1.263 0 2.529-0.288 3.693-0.857l255.849-124.807c2.894-1.412 4.727-4.346 4.727-7.567v-258.297c-0.001-3.355-1.993-6.387-5.067-7.724v0zM743.53 910.916l-211.476-100.726v-204.33l211.476 89.855v215.203zM763.938 660.508l-217.978-89.814c-0.67-0.29-1.353-0.466-2.038-0.558l208.978-90.572 223.714 93.429-212.675 87.514zM996.513 805.023l-211.707 103.101v-212.514l211.707-89.929v199.342zM567.313 701.796l109.073 50.603c1.757 1.468 3.726 2.516 5.785 3.138 6.062 1.842 12.907 0.035 17.241-5.121 5.818-6.88 4.931-17.184-1.956-23.027l-109.087-50.59c-6.895-5.81-17.201-4.934-23.017 1.979-5.818 6.891-4.933 17.188 1.959 23.020v0zM768.113 182.38l-264.807-115.040c-2.179-0.946-4.653-0.929-6.815 0.044l-240.931 108.623c-3.020 1.363-4.961 4.368-4.961 7.678v270.144c0 3.242 1.863 6.199 4.793 7.6l249.888 119.378c1.149 0.55 2.387 0.829 3.632 0.829 1.263 0 2.529-0.288 3.693-0.857l255.849-124.809c2.894-1.412 4.727-4.346 4.727-7.567v-258.297c0-3.355-1.991-6.386-5.066-7.724v0zM491.169 536.341l-211.476-100.726v-204.33l211.476 89.855v215.203zM511.578 285.933l-217.978-89.814c-0.67-0.29-1.353-0.466-2.038-0.558l208.977-90.572 223.714 93.429-212.674 87.514zM744.154 430.449l-211.707 103.101v-212.513l211.707-89.929v199.341zM314.953 327.222l109.073 50.603c1.757 1.468 3.726 2.516 5.785 3.138 6.062 1.842 12.907 0.035 17.241-5.121 5.818-6.88 4.931-17.184-1.956-23.027l-109.087-50.59c-6.895-5.81-17.201-4.934-23.017 1.979-5.818 6.89-4.933 17.187 1.959 23.020v0zM314.953 327.222z" /></svg>