<?xml version="1.0" standalone="no"?><!DOCTYPE svg PUBLIC "-//W3C//DTD SVG 1.1//EN" "http://www.w3.org/Graphics/SVG/1.1/DTD/svg11.dtd"><svg class="icon" width="200px" height="200.00px" viewBox="0 0 1024 1024" version="1.1" xmlns="http://www.w3.org/2000/svg"><path d="M1006.933333 768h-34.133333V204.8c-0.0576-47.108267-38.225067-85.275733-85.333333-85.333333H136.533333C89.425067 119.524267 51.2576 157.691733 51.2 204.8v563.2H17.066667a17.066667 17.066667 0 0 0-17.066667 17.066667v68.266666c0 28.2752 22.9248 51.2 51.2 51.2h921.6c28.2752 0 51.2-22.9248 51.2-51.2v-68.266666a17.066667 17.066667 0 0 0-17.066667-17.066667zM85.333333 290.133333h375.466667V256H85.333333V204.8c0-28.2752 22.9248-51.2 51.2-51.2h750.933334c28.2752 0 51.2 22.9248 51.2 51.2v51.2h-102.4v34.133333h102.4v477.866667H85.333333z m358.4 512h136.533334v17.066667h-136.533334z m546.133334 51.2a17.066667 17.066667 0 0 1-17.066667 17.066667H51.2a17.066667 17.066667 0 0 1-17.066667-17.066667v-51.2h375.466667v17.066667c0 18.850133 15.2832 34.133333 34.133333 34.133333h136.533334c18.850133 0 34.133333-15.2832 34.133333-34.133333v-17.066667h375.466667z m0 0"  /><path d="M153.6 187.733333h34.133333v34.133334H153.6z m0 0M221.866667 187.733333h34.133333v34.133334h-34.133333z m0 0M290.133333 187.733333h34.133334v34.133334h-34.133334z m0 0M375.466667 426.666667c-56.5504 0-102.4 45.8496-102.4 102.4s45.8496 102.4 102.4 102.4 102.4-45.8496 102.4-102.4c-0.0576-56.533333-45.866667-102.3424-102.4-102.4z m0 170.666666c-37.700267 0-68.266667-30.5664-68.266667-68.266666s30.5664-68.266667 68.266667-68.266667 68.266667 30.5664 68.266666 68.266667-30.5664 68.266667-68.266666 68.266666z m0 0"  /><path d="M566.6176 478.208l-30.2848-6.058667a165.706667 165.706667 0 0 0-6.824533-16.576l17.066666-25.6a17.051733 17.051733 0 0 0-2.133333-21.531733l-48.298667-48.3328a17.0496 17.0496 0 0 0-21.518933-2.133333l-25.6 17.066666a170.308267 170.308267 0 0 0-16.5568-6.826666l-6.144-30.299734A17.0752 17.0752 0 0 0 409.6 324.266667h-68.266667a17.0752 17.0752 0 0 0-16.725333 13.649066l-6.0736 30.2848c-5.634133 1.984-11.159467 4.258133-16.558933 6.824534l-25.6-17.066667a17.0496 17.0496 0 0 0-21.5168 2.133333L206.506667 408.3904a17.051733 17.051733 0 0 0-2.133334 21.533867l17.066667 25.6a165.706667 165.706667 0 0 0-6.826667 16.576l-30.299733 6.107733A17.0752 17.0752 0 0 0 170.666667 494.933333v68.266667c0 8.106667 5.7088 15.099733 13.649066 16.725333l30.2848 6.058667a165.706667 165.706667 0 0 0 6.824534 16.576l-17.066667 25.6a17.051733 17.051733 0 0 0 2.133333 21.531733l48.298667 48.3328a17.0496 17.0496 0 0 0 21.518933 2.133334l25.6-17.066667a170.308267 170.308267 0 0 0 16.5568 6.826667l6.144 30.299733A17.0752 17.0752 0 0 0 341.333333 733.866667h68.266667c8.106667 0 15.099733-5.7088 16.725333-13.649067l6.075734-30.2848c5.632-1.984 11.157333-4.258133 16.5568-6.824533l25.6 17.066666a17.0496 17.0496 0 0 0 21.5168-2.133333l48.349866-48.298667a17.051733 17.051733 0 0 0 2.133334-21.533866l-17.066667-25.6a165.706667 165.706667 0 0 0 6.826667-16.576l30.299733-6.107734A17.0752 17.0752 0 0 0 580.266667 563.2v-68.266667c0-8.106667-5.7088-15.099733-13.649067-16.725333zM546.133333 549.207467l-26.417066 5.290666a17.045333 17.045333 0 0 0-13.056 12.042667 135.524267 135.524267 0 0 1-11.950934 28.8512 17.056 17.056 0 0 0 0.714667 17.7408l14.901333 22.357333-28.484266 28.501334-22.357334-14.907734a17.056 17.056 0 0 0-17.783466-0.699733 135.415467 135.415467 0 0 1-28.808534 11.940267 17.0816 17.0816 0 0 0-12.049066 13.058133L395.624533 699.733333h-40.315733l-5.275733-26.417066a17.045333 17.045333 0 0 0-12.040534-13.056 135.012267 135.012267 0 0 1-28.808533-11.950934 17.0752 17.0752 0 0 0-17.783467 0.699734l-22.357333 14.916266-28.401067-28.433066 14.8992-22.357334a17.056 17.056 0 0 0 0.7168-17.742933 135.524267 135.524267 0 0 1-11.9488-28.8512 17.045333 17.045333 0 0 0-13.060266-12.040533L204.8 549.2096v-40.283733l26.417067-5.290667a17.045333 17.045333 0 0 0 13.056-12.042667 135.524267 135.524267 0 0 1 11.950933-28.8512 17.056 17.056 0 0 0-0.714667-17.7408l-14.901333-22.357333 28.484267-28.501333 22.357333 14.907733a17.056 17.056 0 0 0 17.783467 0.699733 135.415467 135.415467 0 0 1 28.808533-11.940266 17.0816 17.0816 0 0 0 12.049067-13.058134L355.3088 358.4h40.315733l5.275734 26.417067a17.045333 17.045333 0 0 0 12.040533 13.056 135.012267 135.012267 0 0 1 28.808533 11.950933 17.0752 17.0752 0 0 0 17.783467-0.699733l22.357333-14.916267 28.484267 28.501333-14.890667 22.357334a17.053867 17.053867 0 0 0-0.7168 17.749333 135.682133 135.682133 0 0 1 11.9424 28.842667 17.0816 17.0816 0 0 0 13.056 12.049066L546.133333 508.928z m0 0M648.533333 358.4a68.266667 68.266667 0 0 1 63.2 42.549333 68.258133 68.258133 0 0 1-15.566933 74.583467 68.258133 68.258133 0 0 1-74.941867 13.717333L607.575467 520.533333c51.8336 22.609067 112.183467-1.0752 134.7904-52.906666 22.6176-51.835733-1.066667-112.1856-52.891734-134.801067-51.831467-22.626133-112.183467 1.058133-134.807466 52.8832l31.266133 13.649067A68.247467 68.247467 0 0 1 648.533333 358.4z m0 0"  /><path d="M839.684267 375.808l-30.2848-6.058667a165.706667 165.706667 0 0 0-6.824534-16.576l17.066667-25.6a17.051733 17.051733 0 0 0-2.133333-21.531733l-48.298667-48.3328a17.0496 17.0496 0 0 0-21.518933-2.133333l-25.6 17.066666a170.308267 170.308267 0 0 0-16.5568-6.826666l-6.144-30.299734A17.0752 17.0752 0 0 0 682.666667 221.866667h-68.266667a17.0752 17.0752 0 0 0-16.725333 13.649066l-6.075734 30.2848c-5.632 1.984-11.157333 4.258133-16.5568 6.824534l-25.6-17.066667a17.0496 17.0496 0 0 0-21.5168 2.133333L479.573333 305.9904l24.132267 24.128 38.382933-38.378667 22.357334 14.912a17.056 17.056 0 0 0 17.7856 0.6976 135.415467 135.415467 0 0 1 28.808533-11.940266 17.058133 17.058133 0 0 0 12.040533-13.058134L628.373333 256h40.32l5.2736 26.417067a17.045333 17.045333 0 0 0 12.040534 13.056 135.012267 135.012267 0 0 1 28.808533 11.950933 17.0752 17.0752 0 0 0 17.783467-0.699733l22.357333-14.916267 28.484267 28.501333-14.890667 22.357334a17.053867 17.053867 0 0 0-0.7168 17.749333 135.682133 135.682133 0 0 1 11.9424 28.842667 17.0816 17.0816 0 0 0 13.056 12.049066L819.2 406.528v40.2816l-26.417067 5.290667a17.045333 17.045333 0 0 0-13.056 12.042666 135.524267 135.524267 0 0 1-11.950933 28.8512 17.056 17.056 0 0 0 0.714667 17.7408l14.901333 22.357334-28.484267 28.501333-22.357333-14.907733a17.056 17.056 0 0 0-17.783467-0.699734 135.415467 135.415467 0 0 1-28.808533 11.940267 17.0816 17.0816 0 0 0-12.049067 13.058133L668.6912 597.333333h-40.315733l-5.275734-26.417066-33.4656 6.709333 8.042667 40.192A17.0752 17.0752 0 0 0 614.4 631.466667h68.266667c8.106667 0 15.099733-5.7088 16.725333-13.649067l6.0736-30.2848c5.634133-1.984 11.159467-4.258133 16.558933-6.824533l25.6 17.066666a17.0496 17.0496 0 0 0 21.5168-2.133333l48.349867-48.298667a17.051733 17.051733 0 0 0 2.133333-21.533866l-17.066666-25.6a165.706667 165.706667 0 0 0 6.826666-16.576l30.299734-6.107734A17.0752 17.0752 0 0 0 853.333333 460.8v-68.266667c0-8.106667-5.7088-15.099733-13.649066-16.725333z m0 0"  /></svg>