<svg id="Layer_1" data-name="Layer 1" xmlns="http://www.w3.org/2000/svg" viewBox="0 0 304.32 218.16"><defs><style>.cls-1{fill:#b61f38;fill-rule:evenodd;}</style></defs><title>Artboard 2</title><path class="cls-1" d="M79.68,22.32c40.79-.58,64.64,18.37,74.16,48.72,11.57,36.88-9.93,65.94-37,74.16-6.47,2-16.24,3.38-24.24,1.68-16.2-3.43-27.81-13.31-33.36-27.36C52.91,103.4,58.2,83.9,68.4,75.84c13.62-10.76,35.22-12.11,46.08,2.4,1.86,2.49,7.11,9.24,5.52,13.68-.71-3.71-3.27-6.39-5.52-8.64-11.59-11.58-31.67-7.67-40.56,3.6C55.43,110.31,75.43,139,98.16,143.76c33.12,7,61.21-27.1,52.8-60.48-5.88-23.34-21.52-39-44.88-44.88C92.7,35,76.55,38.34,67,42.48,40.39,53.94,14.47,87.31,23,130.08c6.26,31.26,20.46,54.23,43.44,68.64,29.26,18.34,70.4,13.7,97.44-3.12a150.8,150.8,0,0,0,37.92-33.36c23.48-29.66,45.59-65.05,101.76-58.8v.24c-42.89-1.92-69.8,34.8-87.6,59.76-16.7,23.43-40.79,41-71.76,50.16-7.54,2.22-15,2.51-23.76,3.84A89.5,89.5,0,0,1,95,217.2c-45.72-7.87-75.09-32.3-89-71.76-8.67-24.52-7.51-57.91,4.32-78.24,10.43-17.92,25-31.64,45.36-39.6l16.08-4.32Z"/><path class="cls-1" d="M120.48,93.12C128,107,109,126.4,95.52,118.32,111.49,120,120.73,108.82,120.48,93.12Z"/></svg>