<?xml version="1.0" standalone="no"?><!DOCTYPE svg PUBLIC "-//W3C//DTD SVG 1.1//EN" "http://www.w3.org/Graphics/SVG/1.1/DTD/svg11.dtd"><svg class="icon" width="200px" height="200.00px" viewBox="0 0 1024 1024" version="1.1" xmlns="http://www.w3.org/2000/svg"><path d="M842 92l-660 0C165.44 92 152 105.44 152 122l0 780C152 918.56 165.44 932 182 932l660 0c16.56 0 30-13.44 30-30l0-780C872 105.44 858.56 92 842 92zM812 872L212 872 212 152l600 0L812 872z"  /><path d="M363.8 332c16.5 0 30-13.44 30-30S380.36 272 363.8 272L363.2 272C346.64 272 333.5 285.44 333.5 302S347.24 332 363.8 332z"  /><path d="M363.8 512c16.5 0 30-13.44 30-30S380.36 452 363.8 452L363.2 452C346.64 452 333.5 465.44 333.5 482S347.24 512 363.8 512z"  /><path d="M363.8 692c16.5 0 30-13.44 30-30S380.36 632 363.8 632L363.2 632c-16.5 0-29.64 13.44-29.64 30S347.24 692 363.8 692z"  /><path d="M482 332l180 0C678.56 332 692 318.56 692 302S678.56 272 662 272l-180 0C465.44 272 452 285.44 452 302S465.44 332 482 332z"  /><path d="M482 512l180 0C678.56 512 692 498.56 692 482S678.56 452 662 452l-180 0C465.44 452 452 465.44 452 482S465.44 512 482 512z"  /><path d="M482 692l180 0c16.56 0 30-13.44 30-30S678.56 632 662 632l-180 0C465.44 632 452 645.44 452 662S465.44 692 482 692z"  /></svg>