<?xml version="1.0" standalone="no"?><!DOCTYPE svg PUBLIC "-//W3C//DTD SVG 1.1//EN" "http://www.w3.org/Graphics/SVG/1.1/DTD/svg11.dtd"><svg class="icon" width="200px" height="200.00px" viewBox="0 0 1024 1024" version="1.1" xmlns="http://www.w3.org/2000/svg"><path d="M656.347429 119.844571c0-30.829714-12.873143-64.438857-44.836572-72.045714-19.090286-4.608-15.36-30.464 2.56-30.464h287.634286c17.846857 0 21.138286 25.965714 3.584 30.171429-34.377143 8.301714-45.714286 40.777143-45.714286 69.522285v782.372572c0 123.392-167.314286 130.011429-198.4 33.097143a104.594286 104.594286 0 0 0 43.044572-16.932572c4.608 16.566857 16.164571 27.611429 30.061714 33.243429a68.973714 68.973714 0 0 0 49.371428 0.256c16.822857-6.765714 29.842286-22.930286 29.842286-49.554286h0.109714V117.174857c0-18.322286 3.181714-36.937143 10.313143-53.76h-132.937143c7.643429 17.846857 11.190857 37.705143 11.190858 56.576v192.658286h65.206857v30.683428h-65.316572v45.970286h30.793143v30.683429h-30.793143v45.970285h65.316572v30.683429h-65.316572v45.970286h30.793143v30.683428h-30.793143v45.970286h65.316572v30.683429h-65.316572v46.08h30.793143v30.72h-22.272l-54.381714-88.758858 0.146286-518.144z m-188.086858 475.611429l123.026286 200.557714H308.077714a29.769143 29.769143 0 0 0-57.782857 0H185.965714l123.392-200.704 158.902857 0.146286z m-95.853714-195.84a15.286857 15.286857 0 0 0-14.262857 9.654857v11.337143a15.36 15.36 0 0 0 29.659429-5.595429 15.542857 15.542857 0 0 0-15.396572-15.396571z m34.377143 113.298286a23.04 23.04 0 1 0 23.04 23.04c0-1.243429-0.146286-2.56-0.256-3.803429a69.412571 69.412571 0 0 1-5.595429-11.593143 23.296 23.296 0 0 0-17.188571-7.643428z m-3.181714-177.371429a15.36 15.36 0 0 0 16.054857 25.344v-25.234286h-16.091429v-0.109714z m77.275428 395.629714a18.212571 18.212571 0 1 0 0 36.425143 18.212571 18.212571 0 0 0 0-36.425143z m-137.398857-110.372571c-22.528 0-25.453714 18.285714-25.453714 40.850286a40.850286 40.850286 0 1 0 81.737143 0c-0.109714-22.674286-33.645714-40.850286-56.283429-40.850286z"  /><path d="M643.620571 887.808c53.357714 0 76.507429-59.721143 49.261715-102.034286L511.451429 490.057143V231.862857h8.667428a23.04 23.04 0 1 0 0-46.08h-77.677714V150.674286c0-8.155429-5.376-14.774857-11.702857-14.774857H346.88c-6.473143 0-11.849143 6.619429-11.849143 14.774857v35.108571H257.462857a23.04 23.04 0 1 0 0 46.116572h8.630857v258.230857L83.748571 786.322286c-24.685714 40.228571-5.339429 101.485714 49.664 101.485714H643.657143zM335.067429 231.862857v42.788572c0 8.155429 5.376 14.774857 11.849142 14.774857h83.785143c6.509714 0 11.702857-6.619429 11.702857-14.774857v-42.788572h23.186286v264.594286c0 4.352 1.170286 8.557714 3.291429 11.995428l185.782857 302.811429c5.010286 8.009143 7.168 30.646857-11.044572 30.646857H133.485714c-18.468571 0-15.433143-23.405714-10.459428-31.561143l185.673143-301.787428a23.296 23.296 0 0 0 3.437714-12.068572v-264.777143l22.893714 0.146286z"  /></svg>